<?xml version="1.0" encoding="utf-8"?>
<!-- Generator: Adobe Illustrator 24.3.0, SVG Export Plug-In . SVG Version: 6.00 Build 0)  -->
<svg version="1.1" id="Layer_1" xmlns="http://www.w3.org/2000/svg" xmlns:xlink="http://www.w3.org/1999/xlink" x="0px" y="0px"
	 viewBox="0 0 240.391 226.414" enable-background="new 0 0 240.391 226.414" xml:space="preserve">
<defs>
	<script  language="JavaScript"></script>
</defs>
<script  type="text/JavaScript">
	<![CDATA[
function notify( ref, type ) {
    var event = document.createEvent("CustomEvent");
    event.initEvent(type,true,true);
    ref.dispatchEvent(event);
}

		
		
		
		
		
		
		
		
		
		
		
		]]>
</script>
<path fill="#F5A909" d="M143.329,14.193c0-2.861-9.302-9.327-23.238-9.327c-13.922,0-22.979,6.466-22.979,9.327"/>
<g>
	<g>
		<path fill="#EA8E10" d="M168.026,16.669c-13.312-2.005-30.541-3.215-49.379-3.215c-17.388,0-33.399,1.03-46.229,2.765V40.46H36.65
			v93.13H203.79V40.91h-35.765V16.669L168.026,16.669z"/>
	</g>
	<path fill="#231F20" d="M168.026,47.872V16.768c18.291,3.174,30.136,8.172,30.136,13.814c3.104,0,5.629,2.596,5.629,5.802v11.488
		H168.026z"/>
	<path fill="#231F20" d="M72.415,47.374V16.269C54.124,19.444,42.28,24.442,42.28,30.084c-3.105,0-5.632,2.594-5.632,5.801v11.488
		L72.415,47.374L72.415,47.374z"/>
</g>
<path fill="#F5A909" d="M213.098,132.777c-4.225-4.224-12.777-4.512-19.145-8.106c-25.554-14.445-43.263-19.029-73.162-19.029
	c-0.188,0-0.381,0.002-0.568,0.004c-0.188-0.001-0.385-0.004-0.569-0.004c-29.899,0-47.606,4.584-73.161,19.029
	c-6.367,3.597-14.923,3.886-19.146,8.106c-12.045,12.046-4.393,37.98-4.393,37.98c0,0.695,0.555,1.248,1.241,1.248h96.024h96.027
	c0.688,0,1.244-0.553,1.244-1.248C217.49,170.756,225.145,144.823,213.098,132.777z"/>
<path fill="#231F20" d="M216.016,172.004h-18.505h-39.844h-75.73H42.691H24.429c-0.729,0-1.311,0.83-1.311,1.861l3.521,8.496
	c0,1.078,0.562,1.967,1.252,1.967h13.404v26.131c0,0.854,0.625,1.549,1.395,1.549h39.246c0.768,0,1.393-0.694,1.393-1.549v-16.332
	h72.936v16.332c0,0.854,0.619,1.549,1.404,1.549h39.844c0.779,0,1.398-0.694,1.398-1.549v-26.131h13.629
	c0.699,0,1.266-0.889,1.266-1.967l3.518-8.496C217.321,172.835,216.729,172.004,216.016,172.004z"/>
<path fill="#12100B" stroke="#4D4947" stroke-width="6" d="M162.682,155.443c0,3.901-3.162,7.063-7.063,7.063H84.823
	c-3.902,0-7.064-3.162-7.064-7.063v-26.56c0-3.907,3.162-7.069,7.064-7.069h70.795c3.901,0,7.063,3.162,7.063,7.069V155.443
	L162.682,155.443z"/>
<path fill="#D0D0D0" stroke="#231F20" stroke-width="4" d="M213.374,147.778c0,8.426-6.817,15.258-15.256,15.258
	c-8.41,0-15.248-6.83-15.248-15.258c0-8.424,6.838-15.255,15.248-15.255C206.557,132.524,213.374,139.354,213.374,147.778z"/>
<path fill="#FFFFFF" stroke="#231F20" stroke-width="2" d="M207.565,147.778c0,5.217-4.222,9.443-9.442,9.443
	c-5.207,0-9.439-4.229-9.439-9.443c0-5.214,4.232-9.441,9.439-9.441C203.343,138.336,207.565,142.564,207.565,147.778z"/>
<path fill="#D0D0D0" stroke="#231F20" stroke-width="4" d="M57.571,147.778c0,8.426-6.817,15.258-15.259,15.258
	c-8.409,0-15.248-6.83-15.248-15.258c0-8.424,6.839-15.255,15.248-15.255C50.751,132.524,57.571,139.354,57.571,147.778z"/>
<path fill="#FFFFFF" stroke="#231F20" stroke-width="2" d="M51.757,147.778c0,5.217-4.221,9.443-9.443,9.443
	c-5.207,0-9.438-4.229-9.438-9.443c0-5.214,4.23-9.441,9.438-9.441C47.538,138.336,51.757,142.564,51.757,147.778z"/>
<line fill="none" stroke="#4D4947" stroke-width="5" x1="79.828" y1="138.493" x2="160.614" y2="138.493"/>
<line fill="none" stroke="#4D4947" stroke-width="5" x1="79.828" y1="130.113" x2="160.614" y2="130.113"/>
<line fill="none" stroke="#4D4947" stroke-width="5" x1="79.828" y1="146.874" x2="160.614" y2="146.874"/>
<line fill="none" stroke="#4D4947" stroke-width="5" x1="79.828" y1="155.254" x2="160.614" y2="155.254"/>
<path fill="#FFFFFF" d="M115.517,91.793c0,0.688-0.555,1.249-1.244,1.249H43.56c-0.688,0-1.246-0.562-1.246-1.249V57.367
	c0-0.688,0.56-1.25,1.246-1.25h70.713c0.689,0,1.244,0.562,1.244,1.25V91.793z"/>
<g>
	<defs>
		<path id="SVGID_1_" d="M198.12,91.793c0,0.688-0.556,1.249-1.242,1.249h-70.701c-0.692,0-1.264-0.562-1.264-1.249V57.367
			c0-0.688,0.567-1.25,1.264-1.25h70.701c0.688,0,1.242,0.562,1.242,1.25V91.793z"/>
	</defs>
	<use xlink:href="#SVGID_1_"  overflow="visible" fill="#FFFFFF"/>
	<clipPath id="SVGID_2_">
		<use xlink:href="#SVGID_1_"  overflow="visible"/>
	</clipPath>
	<g transform="matrix(1 -2.980232e-08 2.980232e-08 1 0 0)" clip-path="url(#SVGID_2_)">
		
			<image overflow="visible" width="648" height="666" xlink:href="5a36efba967655.5142630015135497546163.png"  transform="matrix(0.0831 -0.0403 0.0403 0.0831 106.2982 78.3904)">
		</image>
	</g>
</g>
<path fill="none" stroke="#13110C" stroke-width="6" d="M185.608,93.131c0-9.027-9.754-15.581-18.487-15.581
	c-8.732,0-18.476,6.668-18.476,15.581"/>
<g>
	<path fill="#231F20" d="M28.247,86.558c0,0.682-0.549,1.243-1.236,1.243H10.199c-0.684,0-1.248-0.562-1.248-1.243V62.517
		c0-0.689,0.564-1.243,1.248-1.243h16.811c0.689,0,1.236,0.554,1.236,1.243V86.558z"/>
	<path fill="none" stroke="#13110C" stroke-width="6" d="M18.601,87.801c0,5.763,7.994,10.417,17.886,10.417"/>
</g>
<g>
	<path fill="#231F20" d="M212.143,86.558c0,0.682,0.565,1.243,1.241,1.243h16.812c0.677,0,1.242-0.562,1.242-1.243V62.517
		c0-0.689-0.565-1.243-1.242-1.243h-16.812c-0.676,0-1.241,0.554-1.241,1.243V86.558z"/>
	<path fill="none" stroke="#13110C" stroke-width="6" d="M221.794,87.801c0,5.763-7.994,10.417-17.883,10.417"/>
</g>
<path fill="#E30613" stroke="#DD1215" stroke-width="0.2339" d="M173.449,34.682c0,5.866,4.735,10.608,10.596,10.608
	c5.854,0,10.603-4.742,10.603-10.608c0-5.839-4.748-10.596-10.603-10.596C178.186,24.086,173.449,28.843,173.449,34.682z"/>
<path fill="#E30613" stroke="#DD1215" stroke-width="0.2339" d="M44.56,34.682c0,5.866,4.744,10.608,10.584,10.608
	c5.863,0,10.613-4.742,10.613-10.608c0-5.839-4.75-10.596-10.613-10.596C49.304,24.086,44.56,28.843,44.56,34.682z"/>
<g>
	<path stroke="#000000" stroke-width="0.25" stroke-miterlimit="10" d="M88.19,26.055c1.101-0.184,2.545-0.341,4.382-0.341
		c2.256,0,3.91,0.525,4.959,1.47c0.971,0.84,1.548,2.125,1.548,3.699c0,1.6-0.472,2.86-1.364,3.778
		c-1.207,1.285-3.175,1.942-5.405,1.942c-0.683,0-1.312-0.027-1.836-0.158v7.085H88.19V26.055z M90.473,34.583
		c0.498,0.131,1.128,0.184,1.889,0.184c2.755,0,4.434-1.339,4.434-3.778c0-2.335-1.653-3.463-4.172-3.463
		c-0.998,0-1.758,0.079-2.151,0.184V34.583z"/>
	<path stroke="#000000" stroke-width="0.25" stroke-miterlimit="10" d="M106.983,35.581v1.705h-6.481v-1.705H106.983z"/>
	<path stroke="#000000" stroke-width="0.25" stroke-miterlimit="10" d="M109.769,26.082c0.997-0.21,2.571-0.367,4.172-0.367
		c2.283,0,3.753,0.393,4.854,1.286c0.919,0.682,1.47,1.732,1.47,3.122c0,1.705-1.128,3.2-2.991,3.883v0.052
		c1.679,0.42,3.647,1.811,3.647,4.434c0,1.522-0.604,2.676-1.496,3.542c-1.234,1.128-3.227,1.653-6.114,1.653
		c-1.575,0-2.782-0.105-3.542-0.209V26.082z M112.052,33.323h2.072c2.414,0,3.831-1.259,3.831-2.964
		c0-2.073-1.575-2.886-3.883-2.886c-1.05,0-1.653,0.078-2.02,0.157V33.323z M112.052,41.799c0.445,0.079,1.101,0.105,1.915,0.105
		c2.361,0,4.539-0.865,4.539-3.438c0-2.413-2.072-3.411-4.566-3.411h-1.889V41.799z"/>
	<path stroke="#000000" stroke-width="0.25" stroke-miterlimit="10" d="M126.281,25.846v10.469c0,3.962,1.757,5.641,4.119,5.641
		c2.624,0,4.303-1.732,4.303-5.641V25.846h2.31v10.312c0,5.431-2.861,7.661-6.692,7.661c-3.62,0-6.35-2.072-6.35-7.557V25.846
		H126.281z"/>
	<path stroke="#000000" stroke-width="0.25" stroke-miterlimit="10" d="M140.668,40.749c1.023,0.63,2.519,1.155,4.094,1.155
		c2.335,0,3.7-1.233,3.7-3.018c0-1.653-0.944-2.597-3.333-3.516c-2.886-1.023-4.67-2.519-4.67-5.011
		c0-2.755,2.282-4.802,5.719-4.802c1.812,0,3.124,0.42,3.91,0.865l-0.63,1.863c-0.577-0.315-1.756-0.84-3.359-0.84
		c-2.412,0-3.331,1.443-3.331,2.65c0,1.653,1.075,2.467,3.515,3.411c2.991,1.155,4.514,2.598,4.514,5.195
		c0,2.729-2.021,5.091-6.194,5.091c-1.705,0-3.568-0.499-4.512-1.129L140.668,40.749z"/>
</g>
</svg>
